<?xml version="1.0" encoding="iso-8859-1"?>
<!-- Generator: Adobe Illustrator 19.0.0, SVG Export Plug-In . SVG Version: 6.00 Build 0)  -->
<svg version="1.1" id="Capa_1" xmlns="http://www.w3.org/2000/svg" xmlns:xlink="http://www.w3.org/1999/xlink" x="0px" y="0px"
	 viewBox="0 0 512.003 512.003" style="enable-background:new 0 0 512.003 512.003;" xml:space="preserve">
<g>
	<g>
		<circle style="fill:#FFE17D;" cx="256.431" cy="256.001" r="248.071"/>
		<circle style="fill:#FFFFFF;" cx="175.492" cy="207.988" r="32.009"/>
		<circle style="fill:#FFFFFF;" cx="327.535" cy="183.981" r="72.02"/>
		<path style="fill:#9C6846;" d="M255.514,303.779c-47.796,0-93.419-5.549-135.274-15.581c-5.422-1.299-10.094,4.364-8.422,10.267
			c19.303,68.145,76.28,117.581,143.696,117.581s124.393-49.436,143.696-117.581c1.672-5.903-3-11.567-8.422-10.267
			C348.933,298.229,303.31,303.779,255.514,303.779z"/>
		<path style="fill:#7D5046;" d="M390.789,288.198c-41.856,10.032-87.479,15.581-135.275,15.581s-93.419-5.549-135.274-15.581
			c-5.422-1.299-10.094,4.364-8.422,10.268c5.053,17.838,12.741,34.345,22.468,49.068c39.769,7.555,80.228,11.71,121.245,11.71
			c41.004,0,81.448-4.153,121.205-11.702c9.73-14.725,17.421-31.235,22.474-49.076C400.883,292.562,396.211,286.899,390.789,288.198
			z"/>
		<path style="fill:#E6646E;" d="M376.743,321.961l-17.573-17.573l-131.233,27.204l69.588,69.588
			c21.875,21.875,57.343,21.875,79.218,0v0C398.619,379.304,398.619,343.837,376.743,321.961z"/>
		<path style="fill:#FFD164;" d="M292.441,468.061c-137.006,0-248.071-111.065-248.071-248.071
			c0-59.33,20.855-113.774,55.598-156.462C44.082,109.015,8.36,178.326,8.36,256.001c0,137.005,111.065,248.071,248.071,248.071
			c77.676,0,146.987-35.723,192.473-91.61C406.216,447.206,351.772,468.061,292.441,468.061z"/>
		<path style="fill:#DC4655;" d="M255.588,359.242c35.638-0.003,70.854-3.143,105.564-8.923c10.202-1.699,19.169-8.036,24.02-17.171
			l0.08-0.15c-2.335-3.927-5.128-7.658-8.507-11.038l-17.572-17.573l-131.234,27.204L255.588,359.242z"/>
		<path style="fill:#FFFFFF;" d="M363.123,315.527c4.325-7.412,7.945-15.354,10.98-23.622
			c-37.195,7.676-77.068,11.874-118.588,11.874c-41.545,0-81.441-4.202-118.655-11.887c3.051,8.308,6.729,16.264,11.083,23.707
			c5.034,8.605,13.557,14.109,22.829,15.237c27.761,3.377,56.055,5.189,84.743,5.189c28.682,0,56.969-1.81,84.725-5.186
			C349.542,329.707,358.081,324.166,363.123,315.527z"/>
	</g>
	<g>
		<path d="M15.109,248.714c1.833-61.604,26.857-119.543,70.459-163.146c43.603-43.603,101.543-68.626,163.146-70.459
			c61.333-1.834,120.402,19.43,166.328,59.852c3.109,2.737,7.849,2.436,10.585-0.675c2.737-3.109,2.435-7.848-0.675-10.585
			C376.161,20.758,313.411-1.821,248.268,0.115c-65.44,1.948-126.989,28.529-173.306,74.847
			C28.644,121.279,2.063,182.827,0.115,248.268C-1.824,313.415,20.757,376.162,63.7,424.952c1.482,1.685,3.552,2.545,5.633,2.545
			c1.76,0,3.527-0.616,4.952-1.87c3.109-2.737,3.412-7.476,0.675-10.585C34.538,369.116,13.283,310.047,15.109,248.714z"/>
		<path d="M448.302,87.05c-2.736-3.109-7.476-3.411-10.585-0.675c-3.109,2.737-3.412,7.476-0.675,10.585
			c40.421,45.926,61.677,104.995,59.852,166.328c-1.833,61.603-26.856,119.543-70.459,163.146
			c-43.603,43.603-101.542,68.626-163.146,70.459c-61.338,1.824-120.402-19.43-166.328-59.851
			c-3.108-2.736-7.848-2.435-10.585,0.675c-2.737,3.109-2.435,7.848,0.675,10.585c46.854,41.239,106.58,63.7,168.942,63.7
			c2.576,0,5.158-0.039,7.742-0.116c65.441-1.948,126.989-28.529,173.306-74.846c46.318-46.317,72.899-107.866,74.847-173.306
			C513.826,198.588,491.245,135.841,448.302,87.05z"/>
		<path d="M403.39,285.049c-3.594-3.744-8.694-5.272-13.641-4.085c-42.644,10.221-87.652,15.403-133.776,15.403
			s-91.133-5.182-133.776-15.403c-4.945-1.187-10.046,0.341-13.641,4.084c-3.888,4.049-5.329,10.003-3.761,15.539
			c10.025,35.392,29.502,65.898,56.324,88.222c27.537,22.919,60.337,35.033,94.854,35.033c16.375,0,32.496-2.769,47.95-8.216
			c10.038,6.326,21.664,9.729,33.82,9.729c16.994,0,32.97-6.618,44.986-18.634c19.881-19.881,23.811-49.748,11.824-73.596
			c5.166-10.337,9.407-21.277,12.598-32.539C408.718,295.052,407.277,289.098,403.39,285.049z M364.034,301.704
			c-1.991,4.037-4.182,7.946-6.573,11.684c-3.729,5.832-10.246,9.789-17.435,10.587c-28.071,3.116-56.351,4.696-84.054,4.696
			c-27.711,0-55.997-1.581-84.072-4.698c-7.171-0.796-13.669-4.731-17.384-10.526c-2.409-3.759-4.617-7.689-6.62-11.746
			c34.942,6.41,71.167,9.665,108.076,9.665C292.876,311.367,329.096,308.113,364.034,301.704z M372.122,396.116
			c-9.183,9.183-21.392,14.24-34.379,14.24s-25.196-5.057-34.379-14.24l-33.89-33.89c-2.929-2.929-7.678-2.929-10.606,0
			c-2.929,2.929-2.929,7.678,0,10.606l31.376,31.376c-11.159,3.074-22.644,4.634-34.271,4.634c-30.968,0-60.45-10.914-85.259-31.562
			c-24.136-20.088-42.421-48.777-51.487-80.78c-0.104-0.368-0.058-0.642,0.01-0.821c3.532,0.843,7.085,1.639,10.648,2.415
			c3.273,8.23,7.305,16.118,12.003,23.448c6.132,9.567,16.733,16.049,28.357,17.34c28.623,3.178,57.466,4.79,85.728,4.79
			c16.965,0,34.142-0.592,51.355-1.745l30.782,30.782c1.464,1.464,3.384,2.197,5.303,2.197s3.839-0.732,5.303-2.197
			c2.929-2.929,2.929-7.678,0-10.606l-21.743-21.743c4.906-0.452,9.811-0.932,14.708-1.476c10.702-1.188,20.529-6.788,26.824-15.144
			l3.618,3.618c9.183,9.183,14.24,21.392,14.24,34.379S381.305,386.933,372.122,396.116z M382.729,316.751l-6.305-6.305
			c2.06-4.003,3.933-8.127,5.609-12.346c3.572-0.777,7.134-1.576,10.675-2.421c0.068,0.179,0.114,0.453,0.011,0.82
			c-2.164,7.64-4.857,15.113-8.022,22.322C384.056,318.122,383.406,317.428,382.729,316.751z"/>
		<path d="M215.37,207.87c0-21.818-17.75-39.568-39.568-39.568s-39.568,17.75-39.568,39.568s17.75,39.568,39.568,39.568
			S215.37,229.688,215.37,207.87z M151.234,207.87c0-13.547,11.021-24.568,24.568-24.568s24.568,11.021,24.568,24.568
			s-11.021,24.568-24.568,24.568S151.234,221.417,151.234,207.87z"/>
		<path d="M183.302,211.879v-8.017c0-4.142-3.358-7.5-7.5-7.5s-7.5,3.358-7.5,7.5v8.017c0,4.142,3.358,7.5,7.5,7.5
			S183.302,216.021,183.302,211.879z"/>
		<path d="M328.126,168.302c-4.142,0-7.5,3.358-7.5,7.5v16.034c0,4.142,3.358,7.5,7.5,7.5s7.5-3.358,7.5-7.5v-16.034
			C335.626,171.66,332.268,168.302,328.126,168.302z"/>
		<path d="M328.126,104.165c-43.921,0-79.654,35.732-79.654,79.654c0,43.921,35.732,79.653,79.654,79.653
			c43.921,0,79.653-35.732,79.653-79.653C407.779,139.898,372.047,104.165,328.126,104.165z M328.126,248.472
			c-35.65,0-64.654-29.003-64.654-64.653c0-35.65,29.003-64.654,64.654-64.654c35.65,0,64.653,29.003,64.653,64.654
			C392.779,219.469,363.776,248.472,328.126,248.472z"/>
	</g>
</g>
<g>
</g>
<g>
</g>
<g>
</g>
<g>
</g>
<g>
</g>
<g>
</g>
<g>
</g>
<g>
</g>
<g>
</g>
<g>
</g>
<g>
</g>
<g>
</g>
<g>
</g>
<g>
</g>
<g>
</g>
</svg>
