<?xml version="1.0" encoding="UTF-8" standalone="no"?> <svg xmlns="http://www.w3.org/2000/svg" viewBox="0 0 64 64"><defs><style>.cls-1{fill:#fff35f;}.cls-1,.cls-2,.cls-5,.cls-6{stroke:#54596e;stroke-linecap:round;stroke-linejoin:round;stroke-width:2px;}.cls-2{fill:#9af43b;}.cls-3,.cls-4{fill:#54596e;}.cls-3{opacity:0.15;}.cls-5{fill:none;}.cls-6{fill:#61c5a8;}</style></defs><title>videogame</title><g id="videogame"><rect class="cls-1" x="30" y="33" width="4" height="29"/><path class="cls-2" d="M58,19c0-3.54-2.83-6.74-7.41-9.08C46.69,5.16,39.83,2,32,2S17.31,5.16,13.41,9.92C8.83,12.26,6,15.46,6,19s2.83,6.74,7.41,9.08C17.31,32.84,24.17,36,32,36s14.69-3.16,18.59-7.92C55.17,25.74,58,22.54,58,19Z"/><ellipse class="cls-1" cx="32" cy="19" rx="15" ry="9"/><path class="cls-3" d="M32,24c-7.14,0-13.1-3-14.62-7A5.62,5.62,0,0,0,17,19c0,5,6.72,9,15,9s15-4,15-9a5.62,5.62,0,0,0-.38-2C45.1,21,39.14,24,32,24Z"/><ellipse class="cls-4" cx="27.5" cy="18.5" rx="1.5" ry="2.5"/><ellipse class="cls-4" cx="36.5" cy="18.5" rx="1.5" ry="2.5"/><line class="cls-5" x1="46" y1="62" x2="25" y2="62"/><path class="cls-6" d="M38.5,41h1A4.5,4.5,0,0,1,44,45.5v0A4.5,4.5,0,0,1,39.5,50H34a0,0,0,0,1,0,0V45.5A4.5,4.5,0,0,1,38.5,41Z"/><path class="cls-6" d="M20,47h5.5A4.5,4.5,0,0,1,30,51.5v0A4.5,4.5,0,0,1,25.5,56h-1A4.5,4.5,0,0,1,20,51.5V47A0,0,0,0,1,20,47Z" transform="matrix(-1, 0, 0, -1, 50, 103)"/></g></svg>